<svg width="225" height="88" viewBox="0 0 225 88" fill="none" xmlns="http://www.w3.org/2000/svg">
<path d="M16.3723 37.5225C13.3823 37.5225 10.7988 36.8694 8.62159 35.5631C6.44442 34.2277 4.76074 32.3844 3.57056 30.0331C2.4094 27.6527 1.82882 24.8949 1.82882 21.7598C1.82882 18.6247 2.4094 15.8815 3.57056 13.5301C4.76074 11.1497 6.44442 9.30641 8.62159 8.00011C10.7988 6.66478 13.3823 5.99712 16.3723 5.99712C19.8848 5.99712 22.7296 6.82444 24.9068 8.47909C27.084 10.1337 28.4774 12.4706 29.087 15.4896H25.0374C24.573 13.6027 23.6295 12.0932 22.2071 10.9611C20.7847 9.79991 18.8398 9.21933 16.3723 9.21933C14.1951 9.21933 12.2937 9.72733 10.6681 10.7433C9.04251 11.7303 7.77975 13.1673 6.87985 15.0541C6.00899 16.912 5.57355 19.1472 5.57355 21.7598C5.57355 24.3724 6.00899 26.6222 6.87985 28.509C7.77975 30.3669 9.04251 31.8038 10.6681 32.8198C12.2937 33.8068 14.1951 34.3003 16.3723 34.3003C18.8398 34.3003 20.7847 33.7488 22.2071 32.6457C23.6586 31.5135 24.6165 30.0185 25.081 28.1607H29.087C28.4774 31.0926 27.084 33.3859 24.9068 35.0405C22.7296 36.6952 19.8848 37.5225 16.3723 37.5225ZM43.324 37.5225C41.2919 37.5225 39.4631 37.0581 37.8375 36.1291C36.2119 35.2002 34.9201 33.8939 33.9621 32.2102C33.0332 30.4975 32.5687 28.4945 32.5687 26.2012C32.5687 23.908 33.0477 21.9195 34.0057 20.2358C34.9636 18.5231 36.2554 17.2023 37.881 16.2734C39.5357 15.3444 41.379 14.88 43.411 14.88C45.4431 14.88 47.2719 15.3444 48.8975 16.2734C50.5231 17.2023 51.8004 18.5231 52.7293 20.2358C53.6873 21.9195 54.1663 23.908 54.1663 26.2012C54.1663 28.4945 53.6873 30.4975 52.7293 32.2102C51.7714 33.8939 50.4651 35.2002 48.8104 36.1291C47.1848 37.0581 45.356 37.5225 43.324 37.5225ZM43.324 34.518C44.5722 34.518 45.7334 34.2132 46.8074 33.6036C47.8815 32.994 48.7524 32.0796 49.42 30.8604C50.0877 29.6121 50.4215 28.0591 50.4215 26.2012C50.4215 24.3434 50.0877 22.8049 49.42 21.5856C48.7814 20.3374 47.925 19.4085 46.851 18.7989C45.7769 18.1893 44.6303 17.8845 43.411 17.8845C42.1918 17.8845 41.0307 18.1893 39.9276 18.7989C38.8535 19.4085 37.9826 20.3374 37.315 21.5856C36.6473 22.8049 36.3135 24.3434 36.3135 26.2012C36.3135 28.0591 36.6473 29.6121 37.315 30.8604C37.9826 32.0796 38.839 32.994 39.884 33.6036C40.9581 34.2132 42.1047 34.518 43.324 34.518ZM58.2709 37V15.4025H61.5367L61.8415 19.0601H61.9285C62.6252 17.7829 63.6122 16.7668 64.8895 16.0121C66.1668 15.2573 67.6472 14.88 69.3309 14.88C71.0146 14.88 72.4806 15.2283 73.7288 15.925C74.977 16.5927 75.935 17.6377 76.6027 19.0601C77.2994 20.4535 77.6477 22.2243 77.6477 24.3724V37H73.9901V24.7643C73.9901 22.5291 73.5111 20.8454 72.5531 19.7133C71.5952 18.5812 70.2163 18.0151 68.4165 18.0151C67.1683 18.0151 66.0506 18.3199 65.0637 18.9295C64.1057 19.5391 63.3364 20.4245 62.7559 21.5856C62.2043 22.7178 61.9285 24.1257 61.9285 25.8094V37H58.2709ZM82.1687 37V15.4025H85.4345L85.7393 19.0601H85.8264C86.5231 17.7829 87.5101 16.7668 88.7873 16.0121C90.0646 15.2573 91.5451 14.88 93.2287 14.88C94.9124 14.88 96.3784 15.2283 97.6266 15.925C98.8749 16.5927 99.8328 17.6377 100.5 19.0601C101.197 20.4535 101.546 22.2243 101.546 24.3724V37H97.8879V24.7643C97.8879 22.5291 97.4089 20.8454 96.451 19.7133C95.493 18.5812 94.1141 18.0151 92.3143 18.0151C91.0661 18.0151 89.9485 18.3199 88.9615 18.9295C88.0035 19.5391 87.2343 20.4245 86.6537 21.5856C86.1021 22.7178 85.8264 24.1257 85.8264 25.8094V37H82.1687ZM115.907 37.5225C113.846 37.5225 112.017 37.0581 110.421 36.1291C108.824 35.1712 107.562 33.8504 106.633 32.1667C105.733 30.454 105.283 28.4655 105.283 26.2012C105.283 23.908 105.733 21.9195 106.633 20.2358C107.533 18.5521 108.781 17.2458 110.377 16.3169C112.003 15.3589 113.875 14.88 115.994 14.88C118.114 14.88 119.928 15.3589 121.437 16.3169C122.947 17.2458 124.108 18.4796 124.921 20.0181C125.734 21.5276 126.14 23.1822 126.14 24.982C126.14 25.2723 126.14 25.5916 126.14 25.94C126.14 26.2593 126.126 26.6222 126.097 27.0286H108.026V24.1982H122.526C122.439 22.1953 121.771 20.6422 120.523 19.5391C119.304 18.407 117.765 17.8409 115.907 17.8409C114.659 17.8409 113.498 18.1167 112.424 18.6682C111.35 19.2198 110.479 20.0471 109.811 21.1502C109.173 22.2243 108.853 23.5741 108.853 25.1997V26.419C108.853 28.1897 109.187 29.6702 109.855 30.8604C110.522 32.0506 111.393 32.9505 112.467 33.5601C113.542 34.1407 114.688 34.4309 115.907 34.4309C117.417 34.4309 118.68 34.0826 119.696 33.3859C120.712 32.6892 121.452 31.7458 121.916 30.5556H125.53C125.153 31.8909 124.529 33.0811 123.658 34.1261C122.787 35.1712 121.699 35.9985 120.392 36.6081C119.115 37.2177 117.62 37.5225 115.907 37.5225ZM140.023 37.5225C137.875 37.5225 135.988 37.0581 134.362 36.1291C132.737 35.1712 131.459 33.8504 130.53 32.1667C129.631 30.454 129.181 28.4655 129.181 26.2012C129.181 23.937 129.645 21.963 130.574 20.2793C131.532 18.5666 132.824 17.2458 134.449 16.3169C136.104 15.3589 137.962 14.88 140.023 14.88C142.606 14.88 144.769 15.5476 146.511 16.883C148.253 18.2183 149.356 20.0036 149.82 22.2388H146.075C145.785 20.8454 145.074 19.7713 143.942 19.0166C142.81 18.2618 141.489 17.8845 139.979 17.8845C138.76 17.8845 137.614 18.1893 136.539 18.7989C135.465 19.4085 134.594 20.3374 133.927 21.5856C133.259 22.8049 132.925 24.3434 132.925 26.2012C132.925 27.5366 133.114 28.7268 133.491 29.7718C133.869 30.7878 134.377 31.6442 135.015 32.3409C135.683 33.0376 136.438 33.5601 137.28 33.9084C138.151 34.2568 139.05 34.4309 139.979 34.4309C140.995 34.4309 141.924 34.2713 142.766 33.952C143.608 33.6036 144.319 33.1101 144.9 32.4715C145.48 31.8329 145.872 31.0636 146.075 30.1637H149.82C149.356 32.3409 148.253 34.1116 146.511 35.476C144.769 36.8403 142.606 37.5225 140.023 37.5225ZM162.143 37C160.836 37 159.704 36.7968 158.746 36.3904C157.788 35.984 157.048 35.3018 156.525 34.3439C156.032 33.3569 155.785 32.0361 155.785 30.3814V18.2763H152.041V15.4025H155.785L156.221 10.2208H159.443V15.4025H165.8V18.2763H159.443V30.3814C159.443 31.8038 159.719 32.7618 160.27 33.2553C160.822 33.7488 161.794 33.9955 163.188 33.9955H165.452V37H162.143ZM169.822 37V15.4025H173.479V37H169.822ZM171.65 10.8304C170.925 10.8304 170.315 10.5982 169.822 10.1337C169.328 9.64025 169.081 9.01613 169.081 8.26137C169.081 7.56468 169.328 6.9841 169.822 6.51964C170.315 6.02615 170.925 5.7794 171.65 5.7794C172.347 5.7794 172.942 6.02615 173.436 6.51964C173.929 6.9841 174.176 7.57919 174.176 8.30492C174.176 9.00161 173.929 9.5967 173.436 10.0902C172.942 10.5837 172.347 10.8304 171.65 10.8304ZM178.866 37V15.4025H182.131L182.436 19.0601H182.523C183.22 17.7829 184.207 16.7668 185.484 16.0121C186.761 15.2573 188.242 14.88 189.926 14.88C191.609 14.88 193.075 15.2283 194.324 15.925C195.572 16.5927 196.53 17.6377 197.197 19.0601C197.894 20.4535 198.242 22.2243 198.242 24.3724V37H194.585V24.7643C194.585 22.5291 194.106 20.8454 193.148 19.7133C192.19 18.5812 190.811 18.0151 189.011 18.0151C187.763 18.0151 186.645 18.3199 185.658 18.9295C184.7 19.5391 183.931 20.4245 183.351 21.5856C182.799 22.7178 182.523 24.1257 182.523 25.8094V37H178.866ZM211.908 46.7102C209.963 46.7102 208.235 46.4489 206.726 45.9264C205.216 45.4329 204.041 44.6781 203.199 43.6621C202.357 42.6461 201.936 41.4124 201.936 39.9609C201.936 39.3223 202.067 38.6401 202.328 37.9144C202.618 37.2177 203.097 36.521 203.765 35.8243C204.462 35.1276 205.434 34.489 206.682 33.9084L209.121 35.3889C207.64 36.0275 206.668 36.7242 206.203 37.479C205.739 38.2628 205.507 39.0175 205.507 39.7432C205.507 40.6141 205.768 41.3543 206.29 41.9639C206.813 42.5736 207.553 43.0235 208.511 43.3138C209.469 43.6331 210.601 43.7928 211.908 43.7928C213.214 43.7928 214.302 43.6041 215.173 43.2267C216.073 42.8784 216.741 42.3849 217.176 41.7462C217.641 41.1366 217.873 40.4254 217.873 39.6126C217.873 38.6837 217.496 37.8999 216.741 37.2613C216.015 36.6517 214.622 36.2888 212.561 36.1727C210.848 36.0566 209.411 35.8969 208.25 35.6937C207.118 35.4905 206.174 35.2583 205.42 34.997C204.665 34.7067 204.026 34.3874 203.504 34.0391C203.01 33.6907 202.56 33.3278 202.154 32.9505V31.949L206.378 27.7253L209.034 28.8138L205.202 32.8198L205.637 31.3394C205.957 31.5426 206.261 31.7458 206.552 31.949C206.842 32.1231 207.248 32.2828 207.771 32.4279C208.293 32.5731 208.99 32.7182 209.861 32.8634C210.761 32.9795 211.937 33.0956 213.388 33.2117C215.333 33.3569 216.901 33.6907 218.091 34.2132C219.281 34.7357 220.137 35.447 220.66 36.3468C221.211 37.2177 221.487 38.2628 221.487 39.482C221.487 40.6431 221.139 41.7753 220.442 42.8784C219.774 44.0105 218.729 44.9249 217.307 45.6216C215.914 46.3473 214.114 46.7102 211.908 46.7102ZM211.864 30.2072C210.035 30.2072 208.482 29.8734 207.205 29.2057C205.928 28.509 204.955 27.5801 204.287 26.419C203.62 25.2578 203.286 23.966 203.286 22.5436C203.286 21.1212 203.62 19.8439 204.287 18.7118C204.955 17.5506 205.928 16.6217 207.205 15.925C208.482 15.2283 210.035 14.88 211.864 14.88C213.693 14.88 215.246 15.2283 216.523 15.925C217.8 16.6217 218.773 17.5506 219.441 18.7118C220.108 19.8439 220.442 21.1212 220.442 22.5436C220.442 23.966 220.108 25.2578 219.441 26.419C218.773 27.5801 217.8 28.509 216.523 29.2057C215.246 29.8734 213.693 30.2072 211.864 30.2072ZM211.864 27.2898C213.403 27.2898 214.622 26.8834 215.522 26.0706C216.451 25.2578 216.915 24.0821 216.915 22.5436C216.915 21.0051 216.451 19.8294 215.522 19.0166C214.622 18.2038 213.403 17.7974 211.864 17.7974C210.325 17.7974 209.092 18.2038 208.163 19.0166C207.234 19.8294 206.769 21.0051 206.769 22.5436C206.769 24.0821 207.234 25.2578 208.163 26.0706C209.092 26.8834 210.325 27.2898 211.864 27.2898ZM215.347 18.3199L214.259 15.4025H223.229V17.8409L215.347 18.3199ZM2.65615 81V50.5196H12.018C15.5885 50.5196 18.535 51.1438 20.8573 52.392C23.1796 53.6112 24.8923 55.3675 25.9954 57.6608C27.1275 59.925 27.6936 62.6537 27.6936 65.8469C27.6936 68.982 27.1275 71.6817 25.9954 73.946C24.8923 76.2102 23.1796 77.952 20.8573 79.1712C18.535 80.3904 15.5885 81 12.018 81H2.65615ZM6.31379 77.952H11.9309C14.8918 77.952 17.2432 77.473 18.9849 76.515C20.7557 75.528 22.0184 74.1347 22.7732 72.3349C23.5279 70.506 23.9053 68.3434 23.9053 65.8469C23.9053 63.2924 23.5279 61.1007 22.7732 59.2719C22.0184 57.443 20.7557 56.0351 18.9849 55.0481C17.2432 54.0612 14.8918 53.5677 11.9309 53.5677H6.31379V77.952ZM41.9207 81.5225C39.8887 81.5225 38.0599 81.0581 36.4342 80.1291C34.8086 79.2002 33.5168 77.8939 32.5589 76.2102C31.63 74.4975 31.1655 72.4945 31.1655 70.2012C31.1655 67.908 31.6445 65.9195 32.6024 64.2358C33.5604 62.5231 34.8522 61.2023 36.4778 60.2734C38.1324 59.3444 39.9758 58.88 42.0078 58.88C44.0398 58.88 45.8686 59.3444 47.4943 60.2734C49.1199 61.2023 50.3971 62.5231 51.3261 64.2358C52.284 65.9195 52.763 67.908 52.763 70.2012C52.763 72.4945 52.284 74.4975 51.3261 76.2102C50.3681 77.8939 49.0618 79.2002 47.4072 80.1291C45.7815 81.0581 43.9527 81.5225 41.9207 81.5225ZM41.9207 78.518C43.1689 78.518 44.3301 78.2132 45.4042 77.6036C46.4782 76.994 47.3491 76.0796 48.0168 74.8604C48.6844 73.6121 49.0183 72.0591 49.0183 70.2012C49.0183 68.3434 48.6844 66.8049 48.0168 65.5856C47.3781 64.3374 46.5218 63.4085 45.4477 62.7989C44.3736 62.1893 43.227 61.8845 42.0078 61.8845C40.7886 61.8845 39.6274 62.1893 38.5243 62.7989C37.4503 63.4085 36.5794 64.3374 35.9117 65.5856C35.2441 66.8049 34.9102 68.3434 34.9102 70.2012C34.9102 72.0591 35.2441 73.6121 35.9117 74.8604C36.5794 76.0796 37.4357 76.994 38.4808 77.6036C39.5548 78.2132 40.7015 78.518 41.9207 78.518ZM64.5952 81C63.2889 81 62.1568 80.7968 61.1988 80.3904C60.2409 79.984 59.5007 79.3018 58.9781 78.3439C58.4846 77.3569 58.2379 76.0361 58.2379 74.3814V62.2763H54.4932V59.4025H58.2379L58.6733 54.2208H61.8955V59.4025H68.2529V62.2763H61.8955V74.3814C61.8955 75.8038 62.1713 76.7618 62.7229 77.2553C63.2744 77.7488 64.2469 77.9955 65.6403 77.9955H67.9045V81H64.5952ZM80.0249 81.5225C78.3122 81.5225 76.7737 81.2322 75.4093 80.6517C74.0449 80.042 72.9418 79.2002 72.1 78.1261C71.2872 77.023 70.7792 75.7313 70.576 74.2508H74.3207C74.4949 75.0055 74.7997 75.7167 75.2351 76.3844C75.6996 77.023 76.3237 77.5456 77.1075 77.952C77.9203 78.3584 78.9073 78.5616 80.0684 78.5616C81.1135 78.5616 81.9698 78.4164 82.6375 78.1261C83.3052 77.8068 83.7987 77.4004 84.118 76.9069C84.4373 76.3844 84.597 75.8183 84.597 75.2087C84.597 74.3959 84.3792 73.7573 83.9438 73.2928C83.5374 72.8284 82.9133 72.451 82.0714 72.1607C81.2586 71.8704 80.2862 71.5946 79.154 71.3334C78.2832 71.1302 77.3978 70.8834 76.4979 70.5931C75.598 70.2738 74.7707 69.8964 74.0159 69.461C73.2902 69.0256 72.6951 68.4595 72.2306 67.7628C71.7952 67.0661 71.5775 66.2098 71.5775 65.1938C71.5775 64.0036 71.8968 62.9295 72.5354 61.9715C73.1741 61.0136 74.074 60.2588 75.2351 59.7073C76.4253 59.1557 77.8187 58.88 79.4153 58.88C81.7086 58.88 83.5809 59.446 85.0324 60.5782C86.5129 61.7103 87.3692 63.3504 87.6014 65.4986H83.9873C83.8712 64.3374 83.4068 63.4375 82.594 62.7989C81.8102 62.1602 80.7361 61.8409 79.3717 61.8409C78.0364 61.8409 77.0204 62.1312 76.3237 62.7118C75.627 63.2633 75.2787 63.9891 75.2787 64.889C75.2787 65.4405 75.4674 65.9195 75.8447 66.3259C76.2221 66.7323 76.7882 67.0806 77.5429 67.3709C78.3267 67.6612 79.2701 67.9515 80.3732 68.2418C81.7376 68.5611 83.0149 68.953 84.2051 69.4175C85.3952 69.8819 86.3677 70.5206 87.1225 71.3334C87.9062 72.1462 88.2981 73.2928 88.2981 74.7733C88.3272 76.0796 87.9933 77.2553 87.2966 78.3003C86.629 79.3163 85.671 80.1146 84.4228 80.6952C83.2036 81.2467 81.7376 81.5225 80.0249 81.5225ZM94.0724 81.2177C93.3757 81.2177 92.7806 80.9855 92.2871 80.521C91.8227 80.0275 91.5904 79.4324 91.5904 78.7357C91.5904 78.0681 91.8227 77.502 92.2871 77.0376C92.7806 76.5441 93.3757 76.2973 94.0724 76.2973C94.7691 76.2973 95.3497 76.5441 95.8141 77.0376C96.2786 77.502 96.5108 78.0681 96.5108 78.7357C96.5108 79.4324 96.2786 80.0275 95.8141 80.521C95.3497 80.9855 94.7691 81.2177 94.0724 81.2177Z" fill="white"/>
</svg>
