<svg width="163" height="24" viewBox="0 0 163 24" fill="none" xmlns="http://www.w3.org/2000/svg">
<path d="M8.15736 18.2554C6.69602 18.2554 5.4333 17.9362 4.36921 17.2977C3.30512 16.6451 2.48223 15.7441 1.90052 14.5949C1.33301 13.4315 1.04925 12.0837 1.04925 10.5514C1.04925 9.01909 1.33301 7.67834 1.90052 6.52912C2.48223 5.36572 3.30512 4.46479 4.36921 3.82634C5.4333 3.1737 6.69602 2.84738 8.15736 2.84738C9.87409 2.84738 11.2645 3.25173 12.3286 4.06044C13.3927 4.86915 14.0737 6.01127 14.3716 7.4868H12.3924C12.1654 6.56459 11.7043 5.82683 11.0091 5.2735C10.3139 4.70599 9.36333 4.42223 8.15736 4.42223C7.09328 4.42223 6.16397 4.67052 5.36945 5.16709C4.57493 5.64948 3.95776 6.35178 3.51794 7.27399C3.0923 8.18201 2.87949 9.27447 2.87949 10.5514C2.87949 11.8283 3.0923 12.9278 3.51794 13.8501C3.95776 14.7581 4.57493 15.4604 5.36945 15.9569C6.16397 16.4393 7.09328 16.6805 8.15736 16.6805C9.36333 16.6805 10.3139 16.411 11.0091 15.8718C11.7185 15.3185 12.1867 14.5878 12.4137 13.6798H14.3716C14.0737 15.1128 13.3927 16.2336 12.3286 17.0423C11.2645 17.851 9.87409 18.2554 8.15736 18.2554ZM21.3299 18.2554C20.3368 18.2554 19.443 18.0284 18.6484 17.5744C17.8539 17.1204 17.2226 16.4819 16.7544 15.659C16.3004 14.8219 16.0734 13.843 16.0734 12.7221C16.0734 11.6013 16.3075 10.6294 16.7757 9.80652C17.2438 8.96943 17.8752 8.32389 18.6697 7.86988C19.4784 7.41587 20.3794 7.18886 21.3725 7.18886C22.3657 7.18886 23.2595 7.41587 24.054 7.86988C24.8485 8.32389 25.4728 8.96943 25.9268 9.80652C26.395 10.6294 26.6291 11.6013 26.6291 12.7221C26.6291 13.843 26.395 14.8219 25.9268 15.659C25.4586 16.4819 24.8202 17.1204 24.0115 17.5744C23.2169 18.0284 22.3231 18.2554 21.3299 18.2554ZM21.3299 16.7869C21.94 16.7869 22.5075 16.638 23.0325 16.34C23.5574 16.0421 23.9831 15.5952 24.3094 14.9993C24.6357 14.3892 24.7989 13.6301 24.7989 12.7221C24.7989 11.8141 24.6357 11.0621 24.3094 10.4663C23.9973 9.85618 23.5787 9.40216 23.0538 9.10422C22.5288 8.80627 21.9684 8.6573 21.3725 8.6573C20.7766 8.6573 20.2091 8.80627 19.67 9.10422C19.145 9.40216 18.7194 9.85618 18.3931 10.4663C18.0667 11.0621 17.9036 11.8141 17.9036 12.7221C17.9036 13.6301 18.0667 14.3892 18.3931 14.9993C18.7194 15.5952 19.1379 16.0421 19.6487 16.34C20.1736 16.638 20.7341 16.7869 21.3299 16.7869ZM28.6352 18V7.44424H30.2314L30.3804 9.23191H30.4229C30.7634 8.60764 31.2458 8.11107 31.8701 7.74219C32.4943 7.3733 33.2179 7.18886 34.0408 7.18886C34.8637 7.18886 35.5802 7.35911 36.1903 7.69962C36.8004 8.02594 37.2686 8.53671 37.5949 9.23191C37.9354 9.91293 38.1056 10.7784 38.1056 11.8283V18H36.318V12.0198C36.318 10.9274 36.0839 10.1045 35.6157 9.55114C35.1475 8.99781 34.4735 8.72115 33.5939 8.72115C32.9838 8.72115 32.4376 8.87012 31.9552 9.16806C31.487 9.46601 31.111 9.89874 30.8273 10.4663C30.5577 11.0196 30.4229 11.7077 30.4229 12.5306V18H28.6352ZM40.3153 18V7.44424H41.9114L42.0604 9.23191H42.103C42.4435 8.60764 42.9258 8.11107 43.5501 7.74219C44.1744 7.3733 44.898 7.18886 45.7209 7.18886C46.5437 7.18886 47.2602 7.35911 47.8703 7.69962C48.4804 8.02594 48.9486 8.53671 49.2749 9.23191C49.6154 9.91293 49.7857 10.7784 49.7857 11.8283V18H47.998V12.0198C47.998 10.9274 47.7639 10.1045 47.2957 9.55114C46.8275 8.99781 46.1536 8.72115 45.2739 8.72115C44.6639 8.72115 44.1176 8.87012 43.6352 9.16806C43.167 9.46601 42.7911 9.89874 42.5073 10.4663C42.2377 11.0196 42.103 11.7077 42.103 12.5306V18H40.3153ZM56.805 18.2554C55.7977 18.2554 54.9038 18.0284 54.1235 17.5744C53.3432 17.1062 52.726 16.4606 52.272 15.6377C51.8322 14.8006 51.6122 13.8288 51.6122 12.7221C51.6122 11.6013 51.8322 10.6294 52.272 9.80652C52.7118 8.98362 53.3219 8.34517 54.1022 7.89116C54.8967 7.42296 55.8118 7.18886 56.8476 7.18886C57.8833 7.18886 58.77 7.42296 59.5078 7.89116C60.2456 8.34517 60.8131 8.94815 61.2103 9.70011C61.6076 10.4379 61.8062 11.2466 61.8062 12.1262C61.8062 12.2681 61.8062 12.4242 61.8062 12.5944C61.8062 12.7505 61.7991 12.9278 61.7849 13.1265H52.953V11.7432H60.0398C59.9973 10.7642 59.6709 10.0051 59.0609 9.46601C58.465 8.91268 57.713 8.63602 56.805 8.63602C56.1949 8.63602 55.6274 8.7708 55.1025 9.04037C54.5775 9.30994 54.1519 9.7143 53.8256 10.2534C53.5134 10.7784 53.3574 11.4381 53.3574 12.2326V12.8285C53.3574 13.694 53.5205 14.4176 53.8468 14.9993C54.1732 15.581 54.5988 16.0208 55.1237 16.3187C55.6487 16.6025 56.2091 16.7444 56.805 16.7444C57.5428 16.7444 58.1599 16.5741 58.6565 16.2336C59.1531 15.8931 59.5149 15.432 59.7419 14.8503H61.5083C61.3238 15.5029 61.0188 16.0846 60.5932 16.5954C60.1675 17.1062 59.6355 17.5105 58.997 17.8085C58.3728 18.1064 57.6421 18.2554 56.805 18.2554ZM68.5914 18.2554C67.5415 18.2554 66.6193 18.0284 65.8248 17.5744C65.0303 17.1062 64.406 16.4606 63.952 15.6377C63.5122 14.8006 63.2923 13.8288 63.2923 12.7221C63.2923 11.6155 63.5193 10.6507 63.9733 9.8278C64.4415 8.99072 65.0729 8.34517 65.8674 7.89116C66.6761 7.42296 67.5841 7.18886 68.5914 7.18886C69.8542 7.18886 70.9112 7.51518 71.7624 8.16782C72.6137 8.82046 73.1528 9.69302 73.3798 10.7855H71.5496C71.4077 10.1045 71.0601 9.57951 70.5068 9.21063C69.9535 8.84174 69.3079 8.6573 68.5702 8.6573C67.9743 8.6573 67.4139 8.80627 66.8889 9.10422C66.364 9.40216 65.9383 9.85618 65.612 10.4663C65.2857 11.0621 65.1225 11.8141 65.1225 12.7221C65.1225 13.3748 65.2147 13.9565 65.3992 14.4672C65.5836 14.9638 65.8319 15.3823 66.144 15.7229C66.4704 16.0634 66.8392 16.3187 67.2507 16.489C67.6763 16.6592 68.1161 16.7444 68.5702 16.7444C69.0667 16.7444 69.5207 16.6663 69.9322 16.5103C70.3436 16.34 70.6912 16.0988 70.975 15.7867C71.2588 15.4746 71.4503 15.0986 71.5496 14.6588H73.3798C73.1528 15.7229 72.6137 16.5883 71.7624 17.2551C70.9112 17.922 69.8542 18.2554 68.5914 18.2554ZM79.4024 18C78.764 18 78.2106 17.9007 77.7424 17.7021C77.2742 17.5034 76.9124 17.17 76.6571 16.7018C76.4159 16.2194 76.2953 15.5739 76.2953 14.7652V8.84884H74.465V7.44424H76.2953L76.5081 4.91171H78.0829V7.44424H81.1901V8.84884H78.0829V14.7652C78.0829 15.4604 78.2177 15.9286 78.4873 16.1698C78.7569 16.411 79.2322 16.5316 79.9132 16.5316H81.0198V18H79.4024ZM83.1555 18V7.44424H84.9432V18H83.1555ZM84.0493 5.20966C83.6946 5.20966 83.3967 5.09615 83.1555 4.86915C82.9143 4.62795 82.7937 4.32292 82.7937 3.95403C82.7937 3.61352 82.9143 3.32977 83.1555 3.10276C83.3967 2.86157 83.6946 2.74097 84.0493 2.74097C84.3898 2.74097 84.6807 2.86157 84.9219 3.10276C85.1631 3.32977 85.2837 3.62062 85.2837 3.97531C85.2837 4.31582 85.1631 4.60667 84.9219 4.84787C84.6807 5.08906 84.3898 5.20966 84.0493 5.20966ZM87.5758 18V7.44424H89.1719L89.3209 9.23191H89.3635C89.704 8.60764 90.1863 8.11107 90.8106 7.74219C91.4349 7.3733 92.1585 7.18886 92.9814 7.18886C93.8042 7.18886 94.5207 7.35911 95.1308 7.69962C95.7409 8.02594 96.2091 8.53671 96.5354 9.23191C96.8759 9.91293 97.0462 10.7784 97.0462 11.8283V18H95.2585V12.0198C95.2585 10.9274 95.0244 10.1045 94.5562 9.55114C94.088 8.99781 93.4141 8.72115 92.5344 8.72115C91.9244 8.72115 91.3781 8.87012 90.8957 9.16806C90.4275 9.46601 90.0516 9.89874 89.7678 10.4663C89.4982 11.0196 89.3635 11.7077 89.3635 12.5306V18H87.5758ZM103.725 22.7458C102.774 22.7458 101.93 22.6181 101.192 22.3628C100.455 22.1216 99.8801 21.7527 99.4686 21.2561C99.0572 20.7595 98.8515 20.1566 98.8515 19.4472C98.8515 19.135 98.9153 18.8016 99.043 18.4469C99.1849 18.1064 99.419 17.7659 99.7453 17.4254C100.086 17.0849 100.561 16.7728 101.171 16.489L102.363 17.2126C101.639 17.5247 101.164 17.8652 100.937 18.2341C100.71 18.6172 100.597 18.9861 100.597 19.3408C100.597 19.7664 100.724 20.1282 100.98 20.4261C101.235 20.7241 101.597 20.944 102.065 21.0859C102.533 21.2419 103.087 21.32 103.725 21.32C104.363 21.32 104.895 21.2277 105.321 21.0433C105.761 20.873 106.087 20.6318 106.3 20.3197C106.527 20.0218 106.641 19.6742 106.641 19.2769C106.641 18.8229 106.456 18.4398 106.087 18.1277C105.733 17.8297 105.052 17.6524 104.044 17.5956C103.207 17.5389 102.505 17.4609 101.937 17.3615C101.384 17.2622 100.923 17.1487 100.554 17.021C100.185 16.8792 99.873 16.7231 99.6176 16.5528C99.3764 16.3826 99.1565 16.2052 98.9579 16.0208V15.5313L101.022 13.467L102.32 13.999L100.448 15.9569L100.66 15.2334C100.816 15.3327 100.965 15.432 101.107 15.5313C101.249 15.6164 101.448 15.6945 101.703 15.7654C101.959 15.8364 102.299 15.9073 102.725 15.9782C103.165 16.035 103.739 16.0917 104.449 16.1485C105.399 16.2194 106.165 16.3826 106.747 16.638C107.329 16.8933 107.747 17.241 108.003 17.6808C108.272 18.1064 108.407 18.6172 108.407 19.2131C108.407 19.7806 108.237 20.3339 107.896 20.873C107.57 21.4264 107.059 21.8733 106.364 22.2138C105.683 22.5685 104.803 22.7458 103.725 22.7458ZM103.704 14.68C102.81 14.68 102.051 14.5169 101.427 14.1906C100.802 13.8501 100.327 13.396 100.001 12.8285C99.6744 12.261 99.5112 11.6297 99.5112 10.9345C99.5112 10.2392 99.6744 9.61498 100.001 9.06166C100.327 8.49414 100.802 8.04013 101.427 7.69962C102.051 7.35911 102.81 7.18886 103.704 7.18886C104.598 7.18886 105.357 7.35911 105.981 7.69962C106.605 8.04013 107.08 8.49414 107.407 9.06166C107.733 9.61498 107.896 10.2392 107.896 10.9345C107.896 11.6297 107.733 12.261 107.407 12.8285C107.08 13.396 106.605 13.8501 105.981 14.1906C105.357 14.5169 104.598 14.68 103.704 14.68ZM103.704 13.2542C104.456 13.2542 105.052 13.0555 105.491 12.6583C105.945 12.261 106.172 11.6864 106.172 10.9345C106.172 10.1825 105.945 9.60789 105.491 9.21063C105.052 8.81337 104.456 8.61474 103.704 8.61474C102.952 8.61474 102.349 8.81337 101.895 9.21063C101.441 9.60789 101.214 10.1825 101.214 10.9345C101.214 11.6864 101.441 12.261 101.895 12.6583C102.349 13.0555 102.952 13.2542 103.704 13.2542ZM105.406 8.87012L104.874 7.44424H109.258V8.63602L105.406 8.87012ZM116.155 18V3.10276H120.73C122.476 3.10276 123.916 3.4078 125.051 4.01788C126.186 4.61377 127.023 5.47213 127.562 6.59297C128.115 7.69962 128.392 9.03328 128.392 10.5939C128.392 12.1262 128.115 13.4457 127.562 14.5524C127.023 15.659 126.186 16.5103 125.051 17.1062C123.916 17.7021 122.476 18 120.73 18H116.155ZM117.943 16.5103H120.688C122.135 16.5103 123.284 16.2762 124.136 15.808C125.001 15.3256 125.618 14.6446 125.987 13.7649C126.356 12.8711 126.54 11.8141 126.54 10.5939C126.54 9.34541 126.356 8.27423 125.987 7.3804C125.618 6.48656 125.001 5.79845 124.136 5.31606C123.284 4.83368 122.135 4.59248 120.688 4.59248H117.943V16.5103ZM135.345 18.2554C134.352 18.2554 133.458 18.0284 132.664 17.5744C131.869 17.1204 131.238 16.4819 130.77 15.659C130.316 14.8219 130.089 13.843 130.089 12.7221C130.089 11.6013 130.323 10.6294 130.791 9.80652C131.259 8.96943 131.891 8.32389 132.685 7.86988C133.494 7.41587 134.395 7.18886 135.388 7.18886C136.381 7.18886 137.275 7.41587 138.069 7.86988C138.864 8.32389 139.488 8.96943 139.942 9.80652C140.41 10.6294 140.645 11.6013 140.645 12.7221C140.645 13.843 140.41 14.8219 139.942 15.659C139.474 16.4819 138.836 17.1204 138.027 17.5744C137.232 18.0284 136.339 18.2554 135.345 18.2554ZM135.345 16.7869C135.955 16.7869 136.523 16.638 137.048 16.34C137.573 16.0421 137.998 15.5952 138.325 14.9993C138.651 14.3892 138.814 13.6301 138.814 12.7221C138.814 11.8141 138.651 11.0621 138.325 10.4663C138.013 9.85618 137.594 9.40216 137.069 9.10422C136.544 8.80627 135.984 8.6573 135.388 8.6573C134.792 8.6573 134.225 8.80627 133.685 9.10422C133.16 9.40216 132.735 9.85618 132.408 10.4663C132.082 11.0621 131.919 11.8141 131.919 12.7221C131.919 13.6301 132.082 14.3892 132.408 14.9993C132.735 15.5952 133.153 16.0421 133.664 16.34C134.189 16.638 134.749 16.7869 135.345 16.7869ZM146.428 18C145.789 18 145.236 17.9007 144.768 17.7021C144.299 17.5034 143.938 17.17 143.682 16.7018C143.441 16.2194 143.32 15.5739 143.32 14.7652V8.84884H141.49V7.44424H143.32L143.533 4.91171H145.108V7.44424H148.215V8.84884H145.108V14.7652C145.108 15.4604 145.243 15.9286 145.512 16.1698C145.782 16.411 146.257 16.5316 146.938 16.5316H148.045V18H146.428ZM153.969 18.2554C153.132 18.2554 152.38 18.1135 151.713 17.8297C151.046 17.5318 150.507 17.1204 150.095 16.5954C149.698 16.0563 149.45 15.4249 149.351 14.7013H151.181C151.266 15.0702 151.415 15.4178 151.628 15.7441C151.855 16.0563 152.16 16.3116 152.543 16.5103C152.94 16.7089 153.423 16.8082 153.99 16.8082C154.501 16.8082 154.919 16.7373 155.246 16.5954C155.572 16.4393 155.813 16.2407 155.969 15.9995C156.125 15.7441 156.203 15.4675 156.203 15.1695C156.203 14.7723 156.097 14.4601 155.884 14.2331C155.685 14.0061 155.38 13.8217 154.969 13.6798C154.572 13.5379 154.096 13.4031 153.543 13.2754C153.117 13.1761 152.685 13.0555 152.245 12.9137C151.805 12.7576 151.401 12.5731 151.032 12.3603C150.677 12.1475 150.386 11.8708 150.159 11.5303C149.947 11.1898 149.84 10.7713 149.84 10.2747C149.84 9.69302 149.996 9.16806 150.308 8.69987C150.62 8.23167 151.06 7.86278 151.628 7.59321C152.209 7.32364 152.89 7.18886 153.671 7.18886C154.792 7.18886 155.707 7.46552 156.416 8.01885C157.14 8.57218 157.558 9.37379 157.672 10.4237H155.905C155.849 9.85618 155.622 9.41635 155.224 9.10422C154.841 8.79209 154.316 8.63602 153.65 8.63602C152.997 8.63602 152.5 8.7779 152.16 9.06166C151.819 9.33122 151.649 9.68592 151.649 10.1257C151.649 10.3953 151.741 10.6294 151.926 10.828C152.11 11.0267 152.387 11.1969 152.756 11.3388C153.139 11.4807 153.6 11.6226 154.139 11.7644C154.806 11.9205 155.43 12.112 156.012 12.339C156.594 12.5661 157.069 12.8782 157.438 13.2754C157.821 13.6727 158.012 14.2331 158.012 14.9567C158.026 15.5952 157.863 16.1698 157.523 16.6805C157.196 17.1771 156.728 17.5673 156.118 17.851C155.522 18.1206 154.806 18.2554 153.969 18.2554ZM160.834 18.1064C160.494 18.1064 160.203 17.9929 159.962 17.7659C159.735 17.5247 159.621 17.2339 159.621 16.8933C159.621 16.567 159.735 16.2904 159.962 16.0634C160.203 15.8222 160.494 15.7016 160.834 15.7016C161.175 15.7016 161.459 15.8222 161.686 16.0634C161.913 16.2904 162.026 16.567 162.026 16.8933C162.026 17.2339 161.913 17.5247 161.686 17.7659C161.459 17.9929 161.175 18.1064 160.834 18.1064Z" fill="white"/>
</svg>
