<svg width="58" height="20" viewBox="0 0 58 20" fill="none" xmlns="http://www.w3.org/2000/svg">
<g opacity="0.9">
<path d="M13.7843 8.06095L11.2915 4.7531C11.253 4.70203 11.1926 4.67188 11.1285 4.67188H3.21419C2.06693 4.68002 1.30029 5.37071 1.30029 6.35855V8.35976H13.7627C13.8642 8.35976 13.9222 8.2443 13.8612 8.16345L13.7841 8.06095H13.7843Z" fill="white"/>
<path d="M57.0361 4.67188H51.6741V8.35976H54.4115C54.6399 8.35976 54.7508 8.30222 54.8791 8.12311L57.1112 4.90241L57.1375 4.8643C57.1939 4.78289 57.1355 4.67188 57.0361 4.67188Z" fill="white"/>
<path d="M41.9397 9.6329V6.35836C41.9397 6.35836 41.9339 5.73206 41.4345 5.24286C41.1143 4.92924 40.5913 4.67188 39.7368 4.67188H29.6058C29.5207 4.67188 29.4477 4.72331 29.4166 4.79677C29.4114 4.80898 29.4073 4.82174 29.4047 4.83507C29.4021 4.84839 29.4006 4.86208 29.4006 4.87633V5.00418V5.16774V7.86094V8.02727V8.35957H37.6474C37.6614 8.35957 37.6746 8.36198 37.6872 8.36623C37.6967 8.36938 37.7056 8.37382 37.714 8.379C37.7153 8.37974 37.7166 8.38067 37.7179 8.38159C37.7402 8.39695 37.7571 8.41952 37.7653 8.44579C37.7677 8.45357 37.7693 8.46152 37.7701 8.46966C37.7705 8.47373 37.7706 8.47799 37.7706 8.48224V8.93814V10.9773V11.2889C37.7706 11.3566 37.7154 11.4115 37.6474 11.4115H33.5347C33.4667 11.4115 33.4115 11.3566 33.4115 11.2889V11.0724V9.79202V9.29394C33.4115 9.26341 33.4046 9.23455 33.3925 9.20846C33.36 9.13815 33.2888 9.08931 33.2061 9.08931H29.4008V19.023V19.4773V19.5398C29.4008 19.5539 29.4023 19.5677 29.4049 19.581C29.4075 19.5944 29.4116 19.6071 29.4168 19.6193C29.4367 19.6662 29.4737 19.7039 29.5198 19.7252C29.546 19.7374 29.5752 19.7442 29.606 19.7442H33.2059C33.2368 19.7442 33.266 19.7372 33.2922 19.7252C33.3383 19.7039 33.3753 19.6662 33.3951 19.6193C33.4003 19.6071 33.4044 19.5944 33.407 19.581C33.4096 19.5677 33.4111 19.554 33.4111 19.5398V19.4773V18.8979V15.0271H39.875L39.8758 15.0269C39.8914 15.0273 39.9072 15.0273 39.923 15.0269C40.3164 15.0221 40.7179 14.8713 41.058 14.6304C41.0851 14.6111 41.1121 14.5913 41.1385 14.5708C41.1648 14.5505 41.1909 14.5294 41.2163 14.5079C41.2546 14.4757 41.2918 14.4424 41.3278 14.4078C41.7003 14.0518 41.9484 13.5815 41.9398 13.1036V9.63272L41.9397 9.6329Z" fill="white"/>
<path d="M27.7596 6.40904C27.7111 5.84416 27.4219 5.36884 26.9915 5.05818C26.9804 5.05023 26.9692 5.04227 26.9581 5.0345C26.9413 5.02303 26.9244 5.01156 26.9073 5.00064C26.9032 4.99805 26.8991 4.99546 26.8952 4.99305C26.856 4.96808 26.8155 4.94439 26.7743 4.92219C26.4745 4.7603 26.1245 4.66908 25.7489 4.66797H17.1152C16.6238 4.66945 16.1761 4.82487 15.8276 5.09167C15.8107 5.10462 15.794 5.11776 15.7776 5.13127C15.7538 5.15069 15.7306 5.17068 15.7079 5.19121C15.6871 5.2099 15.6668 5.22914 15.647 5.24876C15.6466 5.24913 15.6464 5.24931 15.646 5.24968C15.3422 5.55016 15.1439 5.94999 15.1045 6.40904C15.1035 6.42069 15.1032 6.43254 15.103 6.44419C15.103 6.44475 15.103 6.44512 15.103 6.44567V8.3614H23.9924C24.0095 8.3614 24.0257 8.36492 24.0404 8.37102C24.0441 8.3725 24.0476 8.37435 24.0512 8.3762C24.0567 8.37916 24.0618 8.38268 24.0668 8.38638C24.0965 8.40877 24.1156 8.44411 24.1156 8.48407V15.9762C24.1156 16.0101 24.1019 16.0408 24.0796 16.063C24.0573 16.0852 24.0264 16.0989 23.9924 16.0989H18.8611C18.8399 16.0989 18.8198 16.0935 18.8023 16.0841C18.801 16.0833 18.7999 16.0826 18.7988 16.0819C18.7897 16.0765 18.7813 16.0702 18.7741 16.063C18.7611 16.05 18.7512 16.0343 18.7451 16.0169C18.7406 16.0042 18.738 15.9907 18.738 15.9764V9.29558C18.738 9.26506 18.7312 9.23619 18.7191 9.2101C18.7089 9.18809 18.6949 9.16792 18.6778 9.1509C18.6732 9.14627 18.6683 9.14183 18.6633 9.13776C18.6278 9.10853 18.5823 9.09113 18.5327 9.09113H15.0939V17.6662C15.0924 17.8116 15.1058 17.9526 15.1327 18.0883C15.134 18.0953 15.1355 18.1023 15.137 18.1094C15.1426 18.136 15.1487 18.1625 15.1552 18.1885C15.1574 18.1972 15.1597 18.2061 15.1621 18.2148C15.1686 18.2391 15.1755 18.2629 15.1827 18.2866C15.1859 18.297 15.1892 18.3075 15.1925 18.3179C15.2048 18.3556 15.2182 18.3928 15.2325 18.4294C15.257 18.492 15.2844 18.5527 15.3147 18.6119C15.3221 18.6263 15.3295 18.6406 15.3373 18.6548C15.3464 18.6715 15.3557 18.6881 15.3652 18.7044C15.3721 18.7164 15.3791 18.7283 15.3864 18.7401C15.4249 18.8034 15.4665 18.8642 15.5113 18.9225C15.5258 18.9414 15.5405 18.9601 15.5557 18.9784C15.9505 19.4572 16.5569 19.7518 17.2094 19.7433H25.6446C26.7785 19.7581 27.773 18.8578 27.7602 17.6666L27.7609 11.3268L27.7613 7.78321V6.44623C27.7613 6.43402 27.7609 6.4218 27.76 6.40959L27.7596 6.40904Z" fill="white"/>
<path d="M50.942 4.67188H43.1997C43.1752 4.67188 43.1518 4.67632 43.1299 4.68427C43.1204 4.6876 43.1113 4.69149 43.1025 4.6963L43.1018 4.69667C43.0377 4.73127 42.9944 4.7988 42.9944 4.87651V8.15531C42.9944 8.26817 43.0864 8.35976 43.1997 8.35976H46.8081C46.8235 8.35976 46.8382 8.36272 46.8519 8.3679C46.887 8.38122 46.9146 8.4099 46.9257 8.44598C46.9281 8.45375 46.9298 8.46171 46.9305 8.46985C46.9309 8.47392 46.9311 8.47817 46.9311 8.48243V19.0182V19.4262V19.5396C46.9311 19.5537 46.9326 19.5675 46.9352 19.5809C46.9378 19.5942 46.9419 19.6069 46.9471 19.6192C46.967 19.666 47.0039 19.7037 47.05 19.725C47.0762 19.7372 47.1054 19.7441 47.1363 19.7441H50.7362C50.8496 19.7441 50.9416 19.6525 50.9416 19.5396V4.67188H50.942Z" fill="white"/>
<path d="M13.8764 16.9685C13.8768 16.9256 13.8764 16.8832 13.8749 16.8414C13.8729 16.7776 13.8688 16.715 13.8632 16.6545C13.8602 16.6231 13.8567 16.5918 13.8526 16.5605C13.8519 16.5542 13.851 16.5478 13.8502 16.5415C13.8463 16.5119 13.8418 16.4824 13.8368 16.4532C13.8355 16.4458 13.8342 16.4386 13.8329 16.4312C13.8283 16.4046 13.8233 16.3781 13.8179 16.3516C13.8166 16.3452 13.8153 16.3385 13.8138 16.332C13.8084 16.3061 13.8024 16.2804 13.7963 16.2549C13.7941 16.2452 13.7917 16.2358 13.7894 16.2264C13.7835 16.2025 13.7772 16.1788 13.7707 16.1551C13.7701 16.1529 13.7694 16.1505 13.7686 16.1483C13.7653 16.1366 13.7619 16.125 13.7584 16.1135C13.753 16.095 13.7474 16.0767 13.7415 16.0584C13.7378 16.0467 13.7341 16.0351 13.7303 16.0234C13.7216 15.9966 13.7123 15.9699 13.7028 15.9435C13.6993 15.9339 13.6956 15.9242 13.6921 15.9146C13.6848 15.895 13.6774 15.8756 13.6696 15.8563C13.6651 15.8452 13.6606 15.8341 13.6562 15.8232C13.6471 15.8008 13.6376 15.7786 13.6277 15.7564C13.6238 15.7477 13.6201 15.739 13.6162 15.7303C13.6054 15.7065 13.5943 15.6826 13.583 15.6591C13.5783 15.6493 13.5735 15.6397 13.5686 15.6299C13.5584 15.6093 13.548 15.5888 13.5372 15.5684C13.5333 15.5612 13.5296 15.5538 13.5259 15.5466C13.5118 15.5201 13.4973 15.4939 13.4824 15.4678C13.478 15.46 13.4735 15.4522 13.4688 15.4447C13.4568 15.4241 13.4447 15.4038 13.4322 15.3834C13.4278 15.376 13.4233 15.3686 13.4187 15.3614C13.4023 15.3353 13.3858 15.3094 13.3687 15.2839C13.3653 15.2789 13.362 15.2741 13.3586 15.2691C13.344 15.2474 13.3291 15.226 13.314 15.2047C13.309 15.1976 13.304 15.1906 13.299 15.1836C13.2806 15.1581 13.2618 15.1329 13.2427 15.1079C13.2231 15.0826 13.2033 15.0576 13.1834 15.0326C13.1707 15.0165 13.1579 15.0006 13.1451 14.9847C13.11 14.9412 13.0743 14.8983 13.0384 14.8557C13.0079 14.8196 12.9773 14.7839 12.9462 14.7484C12.9193 14.7175 12.8921 14.687 12.865 14.6566C12.8343 14.6226 12.8037 14.5887 12.7726 14.5551C12.729 14.5077 12.6851 14.4605 12.6409 14.4137C12.611 14.3821 12.5807 14.3504 12.5506 14.319C12.4909 14.2568 12.4305 14.195 12.3699 14.1332C12.3383 14.101 12.3067 14.0688 12.2749 14.0366C12.213 13.9739 12.1508 13.911 12.0883 13.8475C11.9947 13.7524 11.9006 13.6562 11.8064 13.5578C11.5096 13.2479 11.0708 12.8057 10.5818 12.3187C10.4462 12.1836 10.3066 12.045 10.165 11.905C10.1646 11.9046 10.1644 11.9044 10.164 11.904C10.1077 11.8484 10.051 11.7923 9.99435 11.7362C9.96536 11.7076 9.93636 11.6789 9.90719 11.6502C9.85032 11.5941 9.79344 11.5379 9.73657 11.4818C8.70268 10.4623 7.67102 9.45859 7.37552 9.17125C7.36009 9.15627 7.34318 9.1435 7.32496 9.1324C7.27999 9.10483 7.22814 9.08984 7.17461 9.08984H1.79328C1.75685 9.08984 1.73845 9.13351 1.76392 9.15941L2.14101 9.5413L2.23449 9.63603L4.29205 11.7203L8.40699 15.8891C8.47315 15.9561 8.44082 16.0626 8.36071 16.0908C8.34789 16.0952 8.33414 16.0978 8.31908 16.0978H0.20518C0.136601 16.0978 0.0761991 16.1313 0.038843 16.1827C0.0260192 16.2005 0.0156115 16.2201 0.00910672 16.2415C0.00706236 16.248 0.00538969 16.2545 0.00408873 16.2612C0.00130096 16.2745 0 16.2882 0 16.3024V19.2498V19.54C0 19.547 0.000371703 19.554 0.00111511 19.5609C0.0057614 19.6056 0.0249041 19.6462 0.0538969 19.6776C0.0583574 19.6824 0.0630037 19.687 0.0678358 19.6915C0.0882795 19.71 0.112626 19.7244 0.139203 19.7335C0.160018 19.7405 0.182134 19.7446 0.205366 19.7446H11.0225C11.7943 19.7446 12.5472 19.4508 13.0789 18.8935C13.6906 18.2524 13.871 17.5571 13.8766 16.9698L13.8764 16.9685Z" fill="white"/>
<path d="M55.7026 1.40575V0.0390625H56.5737C56.9245 0.0390625 57.0382 0.197935 57.0382 0.410404C57.0382 0.588418 56.9399 0.699437 56.8108 0.739634V0.743462C56.9746 0.777916 57.0112 0.919562 57.0112 1.11289C57.0112 1.17797 57.0131 1.3311 57.069 1.40575H56.7568C56.7356 1.36747 56.7221 1.29856 56.7221 1.19902C56.7221 1.00378 56.6951 0.865966 56.4832 0.865966H55.9917V1.40575H55.7026ZM55.9917 0.651584H56.4909C56.6508 0.651584 56.7375 0.603731 56.7375 0.4506C56.7375 0.308955 56.6431 0.253445 56.4909 0.253445H55.9917V0.651584Z" fill="white"/>
<path d="M53.4646 1.40575V0.0390625H54.6595V0.253445H53.7537V0.597988H54.6229V0.812371H53.7537V1.19137H54.6749V1.40575H53.4646Z" fill="white"/>
<path d="M50.9426 1.40575V0.0390625H51.2317V0.571191H52.0855V0.0390625H52.3746V1.40575H52.0855V0.785573H51.2317V1.40575H50.9426Z" fill="white"/>
<path d="M49.1876 1.40575V0.253445H48.6711V0.0390625H49.9932V0.253445H49.4767V1.40575H49.1876Z" fill="white"/>
<path d="M46.574 1.40575V0.0390625H47.7688V0.253445H46.8631V0.597988H47.7322V0.812371H46.8631V1.19137H47.7843V1.40575H46.574Z" fill="white"/>
<path d="M45.4827 0.654632V1.40497H45.3131L45.2726 1.22696C45.1608 1.36095 44.9642 1.44325 44.7484 1.44325C44.1664 1.44325 43.939 1.10637 43.939 0.721627C43.939 0.336887 44.1799 0 44.7407 0C45.1589 0 45.4268 0.210554 45.4576 0.478532H45.1454C45.0934 0.292862 44.9199 0.214382 44.733 0.214382C44.3764 0.214382 44.2396 0.430679 44.2396 0.731197C44.2396 1.09488 44.4747 1.22887 44.7176 1.22887C45.0124 1.22887 45.1473 1.09488 45.1936 0.869015H44.8043V0.654632H45.4827Z" fill="white"/>
<path d="M42.1925 1.44325C41.6105 1.44325 41.3831 1.10637 41.3831 0.721627C41.3831 0.336887 41.6105 0 42.1925 0C42.7745 0 43.0019 0.336887 43.0019 0.721627C43.0019 1.10637 42.7745 1.44325 42.1925 1.44325ZM42.1925 1.22887C42.5163 1.22887 42.7013 1.02215 42.7013 0.721627C42.7013 0.421109 42.5163 0.214382 42.1925 0.214382C41.8687 0.214382 41.6837 0.421109 41.6837 0.721627C41.6837 1.02215 41.8687 1.22887 42.1925 1.22887Z" fill="white"/>
<path d="M39.7055 1.40575V0.253445H39.189V0.0390625H40.511V0.253445H39.9945V1.40575H39.7055Z" fill="white"/>
<path d="M35.3206 1.40575V0.0390625H35.652L36.4711 1.06504H36.475V0.0390625H36.7525V1.40575H36.4268L35.6019 0.379778H35.5981V1.40575H35.3206Z" fill="white"/>
<path d="M33.4969 1.44325C32.9149 1.44325 32.6875 1.10637 32.6875 0.721627C32.6875 0.336887 32.9149 0 33.4969 0C34.0789 0 34.3064 0.336887 34.3064 0.721627C34.3064 1.10637 34.0789 1.44325 33.4969 1.44325ZM33.4969 1.22887C33.8207 1.22887 34.0057 1.02215 34.0057 0.721627C34.0057 0.421109 33.8207 0.214382 33.4969 0.214382C33.1732 0.214382 32.9881 0.421109 32.9881 0.721627C32.9881 1.02215 33.1732 1.22887 33.4969 1.22887Z" fill="white"/>
<path d="M31.3848 1.40575V0.0390625H31.6739V1.40575H31.3848Z" fill="white"/>
<path d="M29.0738 0.423023C29.0738 0.118676 29.3455 0 29.6809 0C29.8928 0 30.3168 0.0382825 30.3535 0.434507H30.0412C30.0316 0.32923 29.9352 0.214382 29.6943 0.214382C29.5016 0.214382 29.3744 0.273721 29.3744 0.401967C29.3744 0.723541 30.3997 0.415366 30.3997 0.999175C30.3997 1.35138 30.0316 1.44325 29.7387 1.44325C29.2434 1.44325 29.0449 1.24993 29.041 0.962807H29.3532C29.3609 1.14274 29.5113 1.22887 29.7483 1.22887C29.9237 1.22887 30.0875 1.17719 30.0875 1.02789C30.0875 0.689087 29.0738 0.983862 29.0738 0.423023Z" fill="white"/>
<path d="M26.8357 0.423023C26.8357 0.118676 27.1075 0 27.4428 0C27.6548 0 28.0788 0.0382825 28.1154 0.434507H27.8032C27.7936 0.32923 27.6972 0.214382 27.4563 0.214382C27.2636 0.214382 27.1364 0.273721 27.1364 0.401967C27.1364 0.723541 28.1617 0.415366 28.1617 0.999175C28.1617 1.35138 27.7936 1.44325 27.5006 1.44325C27.0053 1.44325 26.8068 1.24993 26.803 0.962807H27.1152C27.1229 1.14274 27.2732 1.22887 27.5103 1.22887C27.6856 1.22887 27.8495 1.17719 27.8495 1.02789C27.8495 0.689087 26.8357 0.983862 26.8357 0.423023Z" fill="white"/>
<path d="M24.9493 0.852568H25.4234L25.1882 0.276415L24.9493 0.852568ZM24.4077 1.40575L25.0206 0.0390625H25.3636L25.9765 1.40575H25.6546L25.5101 1.06695H24.8625L24.7199 1.40575H24.4077Z" fill="white"/>
<path d="M22.617 0.253445V0.670725H23.0814C23.2452 0.670725 23.3339 0.6267 23.3339 0.463999C23.3339 0.295556 23.2144 0.253445 23.1026 0.253445H22.617ZM22.3279 1.40575V0.0390625H23.1759C23.5131 0.0390625 23.623 0.243874 23.623 0.463999C23.623 0.672639 23.49 0.885108 23.1797 0.885108H22.617V1.40575H22.3279Z" fill="white"/>
<path d="M18.46 1.40575V0.0390625H19.3311C19.6818 0.0390625 19.7955 0.197935 19.7955 0.410404C19.7955 0.588418 19.6972 0.699437 19.5681 0.739634V0.743462C19.7319 0.777916 19.7685 0.919562 19.7685 1.11289C19.7685 1.17797 19.7705 1.3311 19.8264 1.40575H19.5141C19.4929 1.36747 19.4795 1.29856 19.4795 1.19902C19.4795 1.00378 19.4525 0.865966 19.2405 0.865966H18.749V1.40575H18.46ZM18.749 0.651584H19.2482C19.4082 0.651584 19.4949 0.603731 19.4949 0.4506C19.4949 0.308955 19.4004 0.253445 19.2482 0.253445H18.749V0.651584Z" fill="white"/>
<path d="M16.0334 0.818113V0.0390625H16.3225V0.810457C16.3225 0.999956 16.3302 1.22965 16.706 1.22965C17.0838 1.22965 17.0915 0.999956 17.0915 0.810457V0.0390625H17.3806V0.818113C17.3806 1.04398 17.3729 1.44403 16.706 1.44403C16.0412 1.44403 16.0334 1.04398 16.0334 0.818113Z" fill="white"/>
<path d="M14.2215 1.44325C13.6395 1.44325 13.4121 1.10637 13.4121 0.721627C13.4121 0.336887 13.6395 0 14.2215 0C14.8036 0 15.031 0.336887 15.031 0.721627C15.031 1.10637 14.8036 1.44325 14.2215 1.44325ZM14.2215 1.22887C14.5453 1.22887 14.7303 1.02215 14.7303 0.721627C14.7303 0.421109 14.5453 0.214382 14.2215 0.214382C13.8978 0.214382 13.7128 0.421109 13.7128 0.721627C13.7128 1.02215 13.8978 1.22887 14.2215 1.22887Z" fill="white"/>
<path d="M10.2475 1.40575V0.253445H9.73096V0.0390625H11.053V0.253445H10.5365V1.40575H10.2475Z" fill="white"/>
<path d="M7.44507 0.818113V0.0390625H7.73415V0.810457C7.73415 0.999956 7.74186 1.22965 8.11767 1.22965C8.4954 1.22965 8.50311 0.999956 8.50311 0.810457V0.0390625H8.79219V0.818113C8.79219 1.04398 8.78448 1.44403 8.11767 1.44403C7.45278 1.44403 7.44507 1.04398 7.44507 0.818113Z" fill="white"/>
<path d="M5.63316 1.44325C5.05114 1.44325 4.82373 1.10637 4.82373 0.721627C4.82373 0.336887 5.05114 0 5.63316 0C6.21518 0 6.44259 0.336887 6.44259 0.721627C6.44259 1.10637 6.21518 1.44325 5.63316 1.44325ZM5.63316 1.22887C5.95693 1.22887 6.14195 1.02215 6.14195 0.721627C6.14195 0.421109 5.95693 0.214382 5.63316 0.214382C5.30939 0.214382 5.12438 0.421109 5.12438 0.721627C5.12438 1.02215 5.30939 1.22887 5.63316 1.22887Z" fill="white"/>
<path d="M2.37866 1.40575V0.0390625H2.66774V0.571191H3.5215V0.0390625H3.81058V1.40575H3.5215V0.785573H2.66774V1.40575H2.37866Z" fill="white"/>
<path d="M0.0674306 0.423023C0.0674306 0.118676 0.339168 0 0.674504 0C0.886497 0 1.31048 0.0382825 1.3471 0.434507H1.03489C1.02526 0.32923 0.928896 0.214382 0.687994 0.214382C0.495273 0.214382 0.368076 0.273721 0.368076 0.401967C0.368076 0.723541 1.39336 0.415366 1.39336 0.999175C1.39336 1.35138 1.02526 1.44325 0.73232 1.44325C0.237026 1.44325 0.0385224 1.24993 0.034668 0.962807H0.346877C0.354586 1.14274 0.504909 1.22887 0.741956 1.22887C0.917333 1.22887 1.08115 1.17719 1.08115 1.02789C1.08115 0.689087 0.0674306 0.983862 0.0674306 0.423023Z" fill="white"/>
</g>
</svg>
